<?xml version="1.0" ?><svg height="64" preserveAspectRatio="xMidYMid" viewBox="0 0 49 64" width="49" xmlns="http://www.w3.org/2000/svg" xmlns:xlink="http://www.w3.org/1999/xlink"><defs><style>
      .cls-1 {
        fill: #3b2a10;
      }

      .cls-1, .cls-2, .cls-3 {
        fill-rule: evenodd;
      }

      .cls-2 {
        fill: #fff;
      }

      .cls-3 {
        fill: #ee8b4a;
      }
    </style></defs><g><path class="cls-1" d="M49.000,16.842 L49.000,58.947 C49.000,61.738 46.730,64.000 43.931,64.000 L5.069,64.000 C2.269,64.000 -0.000,61.738 -0.000,58.947 L-0.000,5.053 C-0.000,2.262 2.269,-0.000 5.069,-0.000 L32.103,-0.000 L49.000,16.842 Z"/><path class="cls-2" d="M29.990,34.382 C29.772,34.557 29.439,34.644 28.992,34.644 C28.495,34.644 28.158,34.542 27.980,34.337 C27.801,34.132 27.712,33.839 27.712,33.459 C27.712,33.037 27.809,32.734 28.002,32.550 C28.196,32.366 28.526,32.274 28.992,32.274 C29.463,32.274 29.802,32.363 30.008,32.541 C30.214,32.719 30.317,33.025 30.317,33.459 C30.317,33.900 30.208,34.207 29.990,34.382 ZM23.863,44.550 C22.938,45.394 21.945,45.816 20.887,45.816 C19.834,45.816 19.038,45.540 18.500,44.989 C17.961,44.437 17.692,43.730 17.692,42.867 C17.692,42.192 17.830,41.634 18.105,41.194 C18.380,40.754 18.789,40.408 19.330,40.158 C19.872,39.908 20.651,39.731 21.667,39.629 L23.673,39.439 L23.673,39.014 C23.673,38.483 23.512,38.120 23.192,37.924 C22.871,37.728 22.402,37.630 21.785,37.630 C21.277,37.630 20.840,37.714 20.474,37.883 C20.108,38.052 19.837,38.293 19.661,38.607 L17.837,37.440 C18.158,36.903 18.660,36.491 19.344,36.205 C20.027,35.918 20.853,35.775 21.821,35.775 C23.304,35.775 24.373,36.033 25.029,36.549 C25.686,37.064 26.014,37.910 26.014,39.086 L26.014,45.536 L23.863,45.536 L23.863,44.550 ZM23.673,41.130 L22.484,41.239 C21.643,41.311 21.036,41.471 20.664,41.718 C20.292,41.966 20.106,42.337 20.106,42.831 C20.106,43.265 20.227,43.562 20.469,43.722 C20.711,43.882 21.032,43.962 21.431,43.962 C21.715,43.962 22.062,43.873 22.470,43.695 C22.879,43.517 23.279,43.265 23.673,42.940 L23.673,41.130 ZM30.180,45.536 L27.839,45.536 L27.839,36.047 L30.180,36.047 L30.180,45.536 Z"/><path class="cls-3" d="M49.000,15.899 L49.000,17.995 L35.187,17.995 C32.327,17.995 31.008,15.675 31.008,12.814 L31.008,-0.000 L33.100,-0.000 L49.000,15.899 Z"/></g></svg>