<svg xml:space="preserve" xmlns="http://www.w3.org/2000/svg" viewBox="0 0 56.25 56.25"><defs><clipPath id="a"><path d="M0 0v45h45V0H0"></path></clipPath></defs><g clip-path="url(#a)" transform="matrix(1.25 0 0 -1.25 0 56.25)"><path d="M9.347 6.027v32.946c0 .843.684 1.527 1.527 1.527h13.349l11.43-11.43V6.027c0-.843-.684-1.527-1.527-1.527H10.874c-.843 0-1.527.684-1.527 1.527z" fill="#067fcb" fill-opacity="1" fill-rule="evenodd" stroke="none" class="fill-2b2b2b"></path><path d="m24.223 40.5 11.43-11.43H25.75c-.843 0-1.527.684-1.527 1.527V40.5z" fill="#7cc9f9" fill-opacity="1" fill-rule="evenodd" stroke="none" class="fill-525252"></path><path d="M17.16 13.458c.57-.523.855-1.202.855-2.039 0-.836-.285-1.516-.855-2.039-.522-.478-1.209-.718-2.06-.718h-1.662v5.514H15.1c.853 0 1.54-.239 2.06-.718zm.063-2.037c0 .64-.218 1.167-.656 1.581-.361.34-.85.511-1.467.511h-.889V9.334h.889c.619 0 1.108.17 1.467.511.438.416.656.941.656 1.576zM23.471 13.478c.549-.521.823-1.209.823-2.067 0-.857-.274-1.545-.823-2.066-.549-.52-1.223-.78-2.022-.78-.798 0-1.472.26-2.021.78-.549.521-.823 1.209-.823 2.066 0 .858.274 1.546.823 2.067.549.52 1.223.78 2.021.78.799 0 1.473-.26 2.022-.78zm-.56-3.62c.394.392.591.915.591 1.571 0 .656-.197 1.179-.591 1.571-.394.391-.881.587-1.462.587-.58 0-1.067-.196-1.461-.587-.394-.392-.591-.915-.591-1.571 0-.65.197-1.173.591-1.567.394-.394.881-.591 1.461-.591.581 0 1.068.196 1.462.587zM29.383 9.95l.335-.57c-.483-.543-1.155-.815-2.013-.815-.814 0-1.488.263-2.021.788-.534.526-.8 1.212-.8 2.058 0 .847.268 1.533.806 2.059.537.525 1.209.788 2.015.788.809 0 1.461-.243 1.955-.73l-.324-.624c-.127.164-.339.317-.636.46a2.192 2.192 0 0 1-.964.215c-.601 0-1.093-.199-1.477-.597-.384-.398-.575-.916-.575-1.555 0-.639.193-1.156.579-1.553.386-.397.877-.595 1.473-.595.687 0 1.236.224 1.647.671z" fill="#ffffff" fill-opacity="1" fill-rule="nonzero" stroke="none" class="fill-e6e6e6"></path></g></svg>