<svg xml:space="preserve" xmlns="http://www.w3.org/2000/svg" viewBox="0 0 56.25 56.25"><defs><clipPath id="a"><path d="M0 0v45h45V0H0"></path></clipPath></defs><g clip-path="url(#a)" transform="matrix(1.25 0 0 -1.25 0 56.25)"><path d="M9.347 6.027v32.946c0 .843.684 1.527 1.527 1.527h13.349l11.43-11.43V6.027c0-.843-.684-1.527-1.527-1.527H10.874c-.843 0-1.527.684-1.527 1.527z" fill="#ec5757" fill-opacity="1" fill-rule="evenodd" stroke="none" class="fill-2b2b2b"></path><path d="m24.223 40.5 11.43-11.43H25.75c-.843 0-1.527.684-1.527 1.527V40.5z" fill="#f47878" fill-opacity="1" fill-rule="evenodd" stroke="none" class="fill-525252"></path><path d="M16.727 9.318v-.656h-3.289v5.514h3.227v-.648h-2.454v-1.646h2.317v-.648h-2.317V9.318h2.516zM19.885 11.507l1.83-2.845h-.937l-1.397 2.342-1.389-2.342h-.929l1.823 2.845-1.694 2.669h.909l1.28-2.15 1.288 2.15h.909l-1.693-2.669zM25.593 9.318v-.656h-3.289v5.514h3.227v-.648h-2.454v-1.646h2.317v-.648h-2.317V9.318h2.516z" fill="#ffffff" fill-opacity="1" fill-rule="nonzero" stroke="none" class="fill-e6e6e6"></path><path d="M55.574 6.545v31.894c0 .816.663 1.478 1.478 1.478h12.923L81.04 28.852V6.545c0-.816-.662-1.478-1.479-1.478H57.052c-.815 0-1.478.662-1.478 1.478z" fill="none" stroke="#ec5757" stroke-width="1.148" stroke-linecap="butt" stroke-linejoin="miter" stroke-miterlimit="10" stroke-opacity="1" stroke-dasharray="none" class="stroke-2b2b2b"></path><path d="M62.721 9.736v-.635h-3.185v5.338h3.124v-.627h-2.376v-1.594h2.244v-.627h-2.244V9.736h2.437zM65.777 11.855l1.772-2.754h-.907l-1.352 2.267-1.345-2.267h-.899l1.764 2.754-1.639 2.584h.88l1.239-2.082 1.247 2.082h.88l-1.64-2.584zM71.305 9.736v-.635H68.12v5.338h3.124v-.627h-2.376v-1.594h2.244v-.627h-2.244V9.736h2.437z" fill="#ec5757" fill-opacity="1" fill-rule="nonzero" stroke="none" class="fill-2b2b2b"></path></g></svg>