<?xml version="1.0" ?><svg height="64" preserveAspectRatio="xMidYMid" viewBox="0 0 49 64" width="49" xmlns="http://www.w3.org/2000/svg" xmlns:xlink="http://www.w3.org/1999/xlink"><defs><style>
      .cls-1 {
        fill: #7342d8;
      }

      .cls-1, .cls-2, .cls-3 {
        fill-rule: evenodd;
      }

      .cls-2 {
        fill: #fff;
      }

      .cls-3 {
        fill: #a481ee;
      }
    </style></defs><g><path class="cls-1" d="M49.000,16.842 L49.000,58.947 C49.000,61.738 46.730,64.000 43.931,64.000 L5.069,64.000 C2.269,64.000 -0.000,61.738 -0.000,58.947 L-0.000,5.053 C-0.000,2.262 2.269,-0.000 5.069,-0.000 L32.103,-0.000 L49.000,16.842 Z"/><path class="cls-2" d="M36.880,38.014 C36.596,37.878 36.230,37.811 35.782,37.811 C34.983,37.811 34.414,38.055 34.076,38.543 C33.737,39.032 33.568,39.789 33.568,40.814 C33.568,41.839 33.741,42.588 34.089,43.062 C34.437,43.535 35.032,43.772 35.873,43.772 C36.236,43.772 36.568,43.721 36.871,43.618 C37.173,43.516 37.461,43.289 37.733,42.940 L39.503,44.179 C39.140,44.716 38.662,45.123 38.069,45.400 C37.476,45.677 36.726,45.816 35.818,45.816 C34.281,45.816 33.120,45.399 32.333,44.563 C31.547,43.728 31.153,42.490 31.153,40.850 C31.153,39.252 31.535,38.007 32.297,37.114 C33.059,36.222 34.203,35.775 35.727,35.775 C36.544,35.775 37.272,35.908 37.910,36.173 C38.548,36.439 39.034,36.849 39.367,37.403 L37.624,38.643 C37.412,38.359 37.164,38.150 36.880,38.014 ZM27.659,44.550 C26.733,45.394 25.741,45.816 24.682,45.816 C23.629,45.816 22.834,45.540 22.295,44.989 C21.757,44.437 21.488,43.730 21.488,42.867 C21.488,42.192 21.625,41.634 21.900,41.194 C22.176,40.754 22.584,40.408 23.126,40.158 C23.667,39.908 24.446,39.731 25.463,39.629 L27.468,39.439 L27.468,39.014 C27.468,38.483 27.308,38.120 26.987,37.924 C26.666,37.728 26.198,37.630 25.581,37.630 C25.072,37.630 24.635,37.714 24.269,37.883 C23.903,38.052 23.632,38.293 23.457,38.607 L21.633,37.440 C21.953,36.903 22.456,36.491 23.139,36.205 C23.823,35.918 24.649,35.775 25.617,35.775 C27.099,35.775 28.168,36.033 28.825,36.549 C29.481,37.064 29.810,37.910 29.810,39.086 L29.810,45.536 L27.659,45.536 L27.659,44.550 ZM27.468,41.130 L26.279,41.239 C25.438,41.311 24.832,41.471 24.460,41.718 C24.088,41.966 23.902,42.337 23.902,42.831 C23.902,43.265 24.023,43.562 24.265,43.722 C24.507,43.882 24.827,43.962 25.227,43.962 C25.511,43.962 25.857,43.873 26.266,43.695 C26.674,43.517 27.075,43.265 27.468,42.940 L27.468,41.130 ZM17.802,32.066 L20.144,32.066 L20.144,45.536 L17.802,45.536 L17.802,32.066 ZM15.579,33.830 C15.119,33.830 14.803,33.925 14.630,34.115 C14.458,34.305 14.372,34.641 14.372,35.124 L14.372,36.047 L16.305,36.047 L16.305,37.901 L14.372,37.901 L14.372,45.536 L12.030,45.536 L12.030,37.901 L10.823,37.901 L10.823,36.047 L12.030,36.047 L12.030,35.124 C12.030,33.948 12.322,33.098 12.906,32.573 C13.490,32.048 14.369,31.786 15.543,31.786 C16.093,31.786 16.677,31.861 17.294,32.012 L16.840,34.047 C16.405,33.903 15.984,33.830 15.579,33.830 Z"/><path class="cls-3" d="M49.000,15.899 L49.000,17.995 L35.187,17.995 C32.327,17.995 31.008,15.675 31.008,12.814 L31.008,-0.000 L33.100,-0.000 L49.000,15.899 Z"/></g></svg>