<svg xml:space="preserve" xmlns="http://www.w3.org/2000/svg" viewBox="0 0 56.25 56.25"><defs><clipPath id="a"><path d="M0 0v45h45V0H0"></path></clipPath></defs><g clip-path="url(#a)" transform="matrix(1.25 0 0 -1.25 0 56.25)"><path d="M9.347 6.027v32.946c0 .843.684 1.527 1.527 1.527h13.349l11.43-11.43V6.027c0-.843-.684-1.527-1.527-1.527H10.874c-.843 0-1.527.684-1.527 1.527z" fill="#ebc200" fill-opacity="1" fill-rule="evenodd" stroke="none" class="fill-2b2b2b"></path><path d="m24.223 40.5 11.43-11.43H25.75c-.843 0-1.527.684-1.527 1.527V40.5z" fill="#f8db54" fill-opacity="1" fill-rule="evenodd" stroke="none" class="fill-525252"></path><path d="M18.28 11.604V9.462c-.596-.596-1.376-.895-2.341-.898-.799 0-1.467.264-2.006.793-.538.528-.807 1.216-.807 2.064 0 .843.267 1.526.801 2.05.535.524 1.203.787 2.004.787.89 0 1.62-.307 2.189-.921l.039-.039-.527-.488a2.14 2.14 0 0 1-1.701.784c-.58 0-1.059-.196-1.438-.587-.378-.392-.568-.92-.568-1.586 0-.661.195-1.188.584-1.582.389-.395.878-.592 1.469-.592.666 0 1.164.149 1.494.445l.055.059v1.221H16.04v.632h2.24zM20.177 14.176V8.662h-.772v5.514h.772zM24.45 14.176v-.648h-2.287V11.69h2.15v-.648h-2.15v-2.38h-.772v5.514h3.059z" fill="#ffffff" fill-opacity="1" fill-rule="nonzero" stroke="none" class="fill-e6e6e6"></path></g></svg>