<svg xml:space="preserve" xmlns="http://www.w3.org/2000/svg" viewBox="0 0 56.25 56.25"><defs><clipPath id="a"><path d="M0 0v45h45V0H0"></path></clipPath></defs><g clip-path="url(#a)" transform="matrix(1.25 0 0 -1.25 0 56.25)"><path d="M9.347 6.027v32.946c0 .843.684 1.527 1.527 1.527h13.349l11.43-11.43V6.027c0-.843-.684-1.527-1.527-1.527H10.874c-.843 0-1.527.684-1.527 1.527z" fill="#bbcacf" fill-opacity="1" fill-rule="evenodd" stroke="none" class="fill-2b2b2b"></path><path d="m24.223 40.5 11.43-11.43H25.75c-.843 0-1.527.684-1.527 1.527V40.5z" fill="#dfeaee" fill-opacity="1" fill-rule="evenodd" stroke="none" class="fill-525252"></path><path d="M17.13 13.319V8.662h-.656v2.172h-2.478V8.662h-.653v4.657h.653v-1.925h2.478v1.925h.656zM20.977 13.319v-.547h-1.312v-4.11h-.652v4.11h-1.319v.547h3.283zM26.066 13.319l.425-4.657h-.649l-.303 3.678h-.02l-1.424-3.718h-.372l-1.424 3.718h-.02l-.296-3.678h-.65l.419 4.657h.811l1.341-3.596h.017l1.341 3.596h.804zM29.599 9.222v-.56h-2.294v4.657h.653V9.222h1.641z" fill="#ffffff" fill-opacity="1" fill-rule="nonzero" stroke="none" class="fill-e6e6e6"></path></g></svg>