<svg xml:space="preserve" xmlns="http://www.w3.org/2000/svg" viewBox="0 0 56.25 56.25"><defs><clipPath id="a"><path d="M0 0v45h45V0H0"></path></clipPath></defs><g clip-path="url(#a)" transform="matrix(1.25 0 0 -1.25 0 56.25)"><path d="M9.347 6.027v32.946c0 .843.684 1.527 1.527 1.527h13.349l11.43-11.43V6.027c0-.843-.684-1.527-1.527-1.527H10.874c-.843 0-1.527.684-1.527 1.527z" fill="#e28500" fill-opacity="1" fill-rule="evenodd" stroke="none" class="fill-2b2b2b"></path><path d="m24.223 40.5 11.43-11.43H25.75c-.843 0-1.527.684-1.527 1.527V40.5z" fill="#ffcf8b" fill-opacity="1" fill-rule="evenodd" stroke="none" class="fill-525252"></path><path d="M14.21 14.176V8.678c0-.523-.082-.912-.246-1.167a1.044 1.044 0 0 0-.889-.449 1.84 1.84 0 0 0-.287.022 1.511 1.511 0 0 0-.31.076l.015.593c.102-.042.244-.064.426-.067.213 0 .353.084.419.252.066.168.1.407.1.716v5.522h.772zM18.842 12.603c0-.489-.178-.883-.535-1.182-.304-.26-.749-.392-1.334-.394h-.777V8.662h-.772v5.514h1.549c.585 0 1.03-.13 1.334-.391.357-.309.535-.703.535-1.182zm-1.136-.737c.224.166.336.412.336.737s-.112.567-.336.726c-.202.143-.468.214-.796.214h-.714v-1.884h.714c.331 0 .596.069.796.207zM22.955 9.318v-.656h-3.289v5.514h3.227v-.648h-2.455v-1.647h2.318v-.648h-2.318V9.318h2.517zM28.75 11.604V9.462c-.596-.596-1.376-.895-2.341-.898-.799 0-1.467.264-2.006.793-.538.528-.807 1.216-.807 2.064 0 .843.267 1.526.801 2.05.535.524 1.203.787 2.004.787.89 0 1.62-.307 2.189-.921l.039-.039-.527-.488a2.14 2.14 0 0 1-1.701.784c-.58 0-1.059-.196-1.438-.587-.378-.392-.568-.92-.568-1.586 0-.661.195-1.188.584-1.582.389-.395.878-.592 1.469-.592.666 0 1.164.149 1.494.445l.055.059v1.221H26.51v.632h2.24z" fill="#ffffff" fill-opacity="1" fill-rule="nonzero" stroke="none" class="fill-e6e6e6"></path></g></svg>