<?xml version="1.0" ?><svg height="64" preserveAspectRatio="xMidYMid" viewBox="0 0 49 64" width="49" xmlns="http://www.w3.org/2000/svg" xmlns:xlink="http://www.w3.org/1999/xlink"><defs><style>
      .cls-1 {
        fill: #2b2b2b;
      }

      .cls-1, .cls-2, .cls-3 {
        fill-rule: evenodd;
      }

      .cls-2 {
        fill: #fff;
      }

      .cls-3 {
        fill: #58bf1a;
      }
    </style></defs><g><path class="cls-1" d="M49.000,16.842 L49.000,58.947 C49.000,61.738 46.730,64.000 43.931,64.000 L5.069,64.000 C2.269,64.000 -0.000,61.738 -0.000,58.947 L-0.000,5.053 C-0.000,2.262 2.269,-0.000 5.069,-0.000 L32.103,-0.000 L49.000,16.842 Z"/><path class="cls-2" d="M27.595,37.684 C27.111,37.684 26.745,37.767 26.497,37.933 C26.249,38.099 26.125,38.311 26.125,38.570 C26.125,38.818 26.237,39.015 26.461,39.163 C26.685,39.311 27.126,39.466 27.786,39.629 C28.869,39.894 29.642,40.158 30.105,40.420 C30.567,40.683 30.918,41.008 31.157,41.397 C31.396,41.786 31.516,42.264 31.516,42.831 C31.516,43.458 31.357,43.995 31.039,44.441 C30.722,44.888 30.271,45.228 29.687,45.463 C29.103,45.699 28.436,45.816 27.686,45.816 C25.695,45.816 24.340,45.264 23.620,44.161 L25.363,42.940 C25.647,43.326 25.975,43.583 26.347,43.713 C26.720,43.843 27.117,43.908 27.541,43.908 C28.654,43.908 29.211,43.585 29.211,42.940 C29.211,42.656 29.053,42.438 28.739,42.284 C28.424,42.130 27.931,41.972 27.260,41.809 C25.995,41.532 25.106,41.139 24.591,40.633 C24.077,40.126 23.820,39.469 23.820,38.661 C23.820,37.823 24.142,37.132 24.786,36.589 C25.431,36.047 26.379,35.775 27.632,35.775 C28.485,35.775 29.236,35.911 29.887,36.182 C30.537,36.454 31.038,36.861 31.389,37.403 L29.637,38.643 C29.220,38.004 28.539,37.684 27.595,37.684 ZM20.798,34.644 C20.301,34.644 19.963,34.542 19.781,34.337 C19.600,34.132 19.509,33.839 19.509,33.459 C19.509,33.037 19.606,32.734 19.799,32.550 C19.993,32.366 20.326,32.274 20.798,32.274 C21.269,32.274 21.607,32.363 21.809,32.541 C22.012,32.719 22.113,33.025 22.113,33.459 C22.113,33.900 22.005,34.207 21.787,34.382 C21.569,34.557 21.239,34.644 20.798,34.644 ZM19.645,36.047 L21.986,36.047 L21.986,45.943 C21.986,47.077 21.732,47.888 21.224,48.376 C20.716,48.865 19.884,49.109 18.728,49.109 C18.468,49.109 18.126,49.080 17.703,49.023 C17.279,48.966 16.953,48.904 16.723,48.838 L17.231,46.811 C17.673,46.986 18.129,47.074 18.601,47.074 C19.073,47.074 19.365,46.929 19.477,46.639 C19.589,46.350 19.645,45.871 19.645,45.201 L19.645,36.047 Z"/><path class="cls-3" d="M49.000,15.899 L49.000,17.995 L35.187,17.995 C32.327,17.995 31.008,15.675 31.008,12.814 L31.008,-0.000 L33.100,-0.000 L49.000,15.899 Z"/></g></svg>