<svg xml:space="preserve" xmlns="http://www.w3.org/2000/svg" viewBox="0 0 56.25 56.25"><defs><clipPath id="a"><path d="M0 0v45h45V0H0"></path></clipPath></defs><g clip-path="url(#a)" transform="matrix(1.25 0 0 -1.25 0 56.25)"><path d="M9.347 6.027v32.946c0 .843.684 1.527 1.527 1.527h13.349l11.43-11.43V6.027c0-.843-.684-1.527-1.527-1.527H10.874c-.843 0-1.527.684-1.527 1.527z" fill="#2b2b2b" fill-opacity="1" fill-rule="evenodd" stroke="none" class="fill-2b2b2b"></path><path d="m24.223 40.5 11.43-11.43H25.75c-.843 0-1.527.684-1.527 1.527V40.5z" fill="#58bf1a" fill-opacity="1" fill-rule="evenodd" stroke="none" class="fill-525252"></path><path d="M14.21 14.176V8.678c0-.523-.082-.912-.246-1.167a1.044 1.044 0 0 0-.889-.449 1.84 1.84 0 0 0-.287.022 1.511 1.511 0 0 0-.31.076l.015.593c.102-.042.244-.064.426-.067.213 0 .353.084.419.252.066.168.1.407.1.716v5.522h.772zM18.795 10.195a1.48 1.48 0 0 0-.577-1.197c-.352-.289-.802-.434-1.351-.434-.223 0-.435.032-.634.094a1.78 1.78 0 0 0-.53.265c-.155.115-.273.21-.353.287a3.47 3.47 0 0 0-.262.283l.453.519a2.26 2.26 0 0 1 .61-.556c.249-.157.512-.236.791-.236.309 0 .566.084.77.252a.832.832 0 0 1 .307.677c0 .132-.03.252-.088.359a.785.785 0 0 1-.267.275c-.12.077-.209.13-.268.16-.058.03-.149.068-.271.115-.432.172-.724.295-.878.371a1.673 1.673 0 0 0-.554.39c-.239.249-.359.569-.359.96 0 .426.168.78.503 1.061.325.271.75.407 1.272.41.601 0 1.128-.238 1.581-.714l-.406-.527c-.372.395-.777.593-1.214.593-.283 0-.514-.067-.692-.201a.669.669 0 0 1-.267-.568.84.84 0 0 1 .058-.324.64.64 0 0 1 .176-.24c.078-.066.151-.118.22-.156.069-.037.154-.077.256-.119l1.014-.425a1.81 1.81 0 0 0 .625-.445 1.45 1.45 0 0 0 .335-.929z" fill="#ffffff" fill-opacity="1" fill-rule="nonzero" stroke="none" class="fill-e6e6e6"></path></g></svg>