<?xml version="1.0" ?><svg height="64" preserveAspectRatio="xMidYMid" viewBox="0 0 49 64" width="49" xmlns="http://www.w3.org/2000/svg" xmlns:xlink="http://www.w3.org/1999/xlink"><defs><style>
      .cls-1 {
        fill: #76b8b7;
      }

      .cls-1, .cls-2, .cls-3 {
        fill-rule: evenodd;
      }

      .cls-2 {
        fill: #fff;
      }

      .cls-3 {
        fill: #afdcdb;
      }
    </style></defs><g><path class="cls-1" d="M49.000,16.842 L49.000,58.947 C49.000,61.738 46.730,64.000 43.931,64.000 L5.069,64.000 C2.269,64.000 -0.000,61.738 -0.000,58.947 L-0.000,5.053 C-0.000,2.262 2.269,-0.000 5.069,-0.000 L32.103,-0.000 L49.000,16.842 Z"/><path class="cls-2" d="M37.967,45.536 L35.807,45.536 L32.431,36.047 L34.827,36.047 L36.942,42.297 L39.047,36.047 L41.389,36.047 L37.967,45.536 ZM27.721,45.816 C24.671,45.816 23.147,44.149 23.147,40.814 C23.147,39.210 23.513,37.969 24.245,37.091 C24.977,36.214 26.135,35.775 27.721,35.775 C29.294,35.775 30.446,36.214 31.178,37.091 C31.910,37.969 32.276,39.210 32.276,40.814 C32.276,42.394 31.910,43.623 31.178,44.500 C30.446,45.378 29.294,45.816 27.721,45.816 ZM29.363,38.530 C29.036,38.050 28.489,37.811 27.721,37.811 C26.958,37.811 26.408,38.056 26.069,38.548 C25.730,39.039 25.561,39.795 25.561,40.814 C25.561,41.827 25.729,42.573 26.064,43.053 C26.400,43.532 26.952,43.772 27.721,43.772 C28.477,43.772 29.021,43.535 29.354,43.062 C29.687,42.588 29.853,41.839 29.853,40.814 C29.853,39.771 29.690,39.009 29.363,38.530 ZM19.470,39.945 C19.470,39.385 19.437,38.947 19.371,38.634 C19.304,38.320 19.203,38.108 19.067,37.996 C18.930,37.884 18.705,37.829 18.390,37.829 C18.033,37.829 17.655,37.961 17.256,38.227 C16.857,38.492 16.485,38.818 16.140,39.204 L16.140,45.536 L13.798,45.536 L13.798,39.945 C13.798,39.330 13.771,38.886 13.717,38.611 C13.662,38.337 13.565,38.138 13.426,38.014 C13.287,37.891 13.051,37.829 12.718,37.829 C12.428,37.829 12.092,37.939 11.711,38.159 C11.330,38.379 10.915,38.727 10.468,39.204 L10.468,45.536 L8.126,45.536 L8.126,36.047 L10.468,36.047 L10.468,37.277 C10.903,36.806 11.360,36.439 11.838,36.173 C12.316,35.908 12.845,35.775 13.426,35.775 C14.219,35.775 14.804,35.911 15.182,36.182 C15.560,36.454 15.819,36.855 15.958,37.385 C16.503,36.843 17.012,36.439 17.487,36.173 C17.962,35.908 18.518,35.775 19.153,35.775 C20.078,35.775 20.753,36.038 21.177,36.562 C21.600,37.087 21.812,37.967 21.812,39.204 L21.812,45.536 L19.470,45.536 L19.470,39.945 Z"/><path class="cls-3" d="M49.000,15.899 L49.000,17.995 L35.187,17.995 C32.327,17.995 31.008,15.675 31.008,12.814 L31.008,-0.000 L33.100,-0.000 L49.000,15.899 Z"/></g></svg>