<svg xml:space="preserve" xmlns="http://www.w3.org/2000/svg" viewBox="0 0 56.25 56.25"><defs><clipPath id="a"><path d="M0 0v45h45V0H0"></path></clipPath></defs><g clip-path="url(#a)" transform="matrix(1.25 0 0 -1.25 0 56.25)"><path d="M9.347 6.027v32.946c0 .843.684 1.527 1.527 1.527h13.349l11.43-11.43V6.027c0-.843-.684-1.527-1.527-1.527H10.874c-.843 0-1.527.684-1.527 1.527z" fill="#2d25de" fill-opacity="1" fill-rule="evenodd" stroke="none" class="fill-2b2b2b"></path><path d="m24.223 40.5 11.43-11.43H25.75c-.843 0-1.527.684-1.527 1.527V40.5z" fill="#91a8ff" fill-opacity="1" fill-rule="evenodd" stroke="none" class="fill-525252"></path><path d="m18.792 14.176.503-5.514h-.769l-.359 4.355h-.023l-1.686-4.401h-.441l-1.686 4.401h-.023l-.351-4.355h-.769l.496 5.514h.96l1.588-4.257h.019l1.589 4.257h.952zM23.677 12.604c0-.489-.178-.884-.534-1.183-.305-.26-.75-.391-1.335-.394h-.776V8.662h-.773v5.514h1.549c.585 0 1.03-.13 1.335-.39.356-.31.534-.704.534-1.182zm-1.135-.738c.223.166.335.412.335.738 0 .325-.112.567-.335.725-.203.143-.469.215-.796.215h-.714v-1.885h.714c.33 0 .595.069.796.207zM28.087 10.204c0-.489-.188-.881-.564-1.177-.376-.295-.851-.443-1.426-.443-.713 0-1.31.311-1.791.933l.433.472c.07-.086.148-.174.232-.263.085-.09.237-.198.459-.324a1.31 1.31 0 0 1 .651-.189c.367 0 .666.089.896.269.23.179.345.43.345.753 0 .32-.108.566-.324.739-.216.173-.489.26-.819.26h-.41v.616h.41c.299 0 .539.079.72.237.181.157.271.377.271.659 0 .282-.1.502-.301.659-.2.158-.447.236-.741.236-.447 0-.886-.21-1.315-.632l-.363.465c.219.239.461.43.728.571.267.142.605.213 1.016.213.474 0 .88-.131 1.218-.392a1.25 1.25 0 0 0 .507-1.04c0-.362-.09-.641-.271-.839a1.4 1.4 0 0 0-.622-.406v-.027c.26-.047.502-.186.725-.418.224-.231.336-.542.336-.932z" fill="#ffffff" fill-opacity="1" fill-rule="nonzero" stroke="none" class="fill-e6e6e6"></path><path d="M57.674 6.62v31.894c0 .816.663 1.478 1.478 1.478h12.923L83.14 28.927V6.62c0-.816-.662-1.478-1.479-1.478H59.152c-.815 0-1.478.662-1.478 1.478z" fill="none" stroke="#2d25de" stroke-width="1.148" stroke-linecap="butt" stroke-linejoin="miter" stroke-miterlimit="10" stroke-opacity="1" stroke-dasharray="none" class="stroke-2b2b2b"></path><path d="m66.819 14.514.487-5.338h-.744l-.347 4.216h-.023L64.56 9.131h-.427l-1.632 4.261h-.023l-.34-4.216h-.744l.48 5.338h.929l1.538-4.122h.019l1.537 4.122h.922zM71.549 12.992c0-.474-.172-.855-.517-1.145-.295-.252-.726-.379-1.292-.382h-.752V9.176h-.748v5.338h1.5c.566 0 .997-.126 1.292-.378.345-.3.517-.681.517-1.144zm-1.099-.714c.217.161.325.399.325.714 0 .314-.108.549-.325.702-.196.139-.453.208-.771.208h-.691v-1.825h.691c.32 0 .577.067.771.201z" fill="#2d25de" fill-opacity="1" fill-rule="nonzero" stroke="none" class="fill-2b2b2b"></path></g></svg>