<svg xml:space="preserve" xmlns="http://www.w3.org/2000/svg" viewBox="0 0 56.25 56.25"><defs><clipPath id="a"><path d="M0 0v45h45V0H0"></path></clipPath></defs><g clip-path="url(#a)" transform="matrix(1.25 0 0 -1.25 0 56.25)"><path d="M9.347 6.027v32.946c0 .843.684 1.527 1.527 1.527h13.349l11.43-11.43V6.027c0-.843-.684-1.527-1.527-1.527H10.874c-.843 0-1.527.684-1.527 1.527z" fill="#cb0606" fill-opacity="1" fill-rule="evenodd" stroke="none" class="fill-2b2b2b"></path><path d="m24.223 40.5 11.43-11.43H25.75c-.843 0-1.527.684-1.527 1.527V40.5z" fill="#fb8d8d" fill-opacity="1" fill-rule="evenodd" stroke="none" class="fill-525252"></path><path d="M16.856 12.604c0-.489-.178-.884-.534-1.183-.305-.26-.75-.391-1.335-.394h-.776V8.662h-.773v5.514h1.549c.585 0 1.03-.13 1.335-.39.356-.31.534-.704.534-1.182zm-1.135-.738c.223.166.335.412.335.738 0 .325-.112.567-.335.725-.203.143-.469.215-.796.215h-.714v-1.885h.714c.33 0 .595.069.796.207zM21.402 13.458c.57-.523.855-1.202.855-2.039 0-.836-.285-1.516-.855-2.039-.522-.478-1.209-.718-2.06-.718H17.68v5.514h1.662c.853 0 1.54-.239 2.06-.718zm.063-2.037c0 .64-.218 1.167-.656 1.581-.361.34-.85.511-1.467.511h-.889V9.334h.889c.619 0 1.108.17 1.467.511.438.416.656.941.656 1.576zM26.218 14.176v-.648h-2.286V11.69h2.15v-.647h-2.15V8.662h-.773v5.514h3.059z" fill="#ffffff" fill-opacity="1" fill-rule="nonzero" stroke="none" class="fill-e6e6e6"></path></g></svg>