<svg xml:space="preserve" xmlns="http://www.w3.org/2000/svg" viewBox="0 0 56.25 56.25"><defs><clipPath id="a"><path d="M0 0v45h45V0H0"></path></clipPath></defs><g clip-path="url(#a)" transform="matrix(1.25 0 0 -1.25 0 56.25)"><path d="M9.347 6.027v32.946c0 .843.684 1.527 1.527 1.527h13.349l11.43-11.43V6.027c0-.843-.684-1.527-1.527-1.527H10.874c-.843 0-1.527.684-1.527 1.527z" fill="#d15ae3" fill-opacity="1" fill-rule="evenodd" stroke="none" class="fill-2b2b2b"></path><path d="m24.223 40.5 11.43-11.43H25.75c-.843 0-1.527.684-1.527 1.527V40.5z" fill="#ed91fa" fill-opacity="1" fill-rule="evenodd" stroke="none" class="fill-525252"></path><path d="M16.856 12.603c0-.489-.178-.883-.535-1.182-.304-.26-.749-.392-1.334-.394h-.777V8.662h-.772v5.514h1.549c.585 0 1.03-.13 1.334-.391.357-.309.535-.703.535-1.182zm-1.136-.737c.224.166.336.412.336.737s-.112.567-.336.726c-.202.143-.468.214-.796.214h-.714v-1.884h.714c.331 0 .596.069.796.207zM22.37 14.176V8.662h-.761l-3.18 4.394c.01-.495.016-.981.016-1.46V8.662h-.765v5.514h.815l3.122-4.332c-.005.453-.008.923-.008 1.409v2.923h.761zM28.434 11.604V9.462c-.596-.596-1.376-.895-2.341-.898-.799 0-1.467.264-2.006.793-.538.528-.807 1.216-.807 2.064 0 .843.267 1.526.801 2.05.535.524 1.203.787 2.004.787.89 0 1.62-.307 2.189-.921l.039-.039-.527-.488a2.14 2.14 0 0 1-1.701.784c-.58 0-1.059-.196-1.438-.587-.378-.392-.568-.92-.568-1.586 0-.661.195-1.188.584-1.582.389-.395.878-.592 1.469-.592.666 0 1.164.149 1.494.445l.055.059v1.221h-1.487v.632h2.24z" fill="#ffffff" fill-opacity="1" fill-rule="nonzero" stroke="none" class="fill-e6e6e6"></path></g></svg>