<svg xml:space="preserve" xmlns="http://www.w3.org/2000/svg" viewBox="0 0 56.25 56.25"><defs><clipPath id="a"><path d="M0 0v45h45V0H0"></path></clipPath></defs><g clip-path="url(#a)" transform="matrix(1.25 0 0 -1.25 0 56.25)"><path d="M9.347 6.027v32.946c0 .843.684 1.527 1.527 1.527h13.349l11.43-11.43V6.027c0-.843-.684-1.527-1.527-1.527H10.874c-.843 0-1.527.684-1.527 1.527z" fill="#b3b3b3" fill-opacity="1" fill-rule="evenodd" stroke="none" class="fill-2b2b2b"></path><path d="m24.223 40.5 11.43-11.43H25.75c-.843 0-1.527.684-1.527 1.527V40.5z" fill="#d6d6d6" fill-opacity="1" fill-rule="evenodd" stroke="none" class="fill-525252"></path><path d="M16.77 14.176v-.648h-1.553V8.662h-.772v4.866h-1.561v.648h3.886zM19.647 11.507l1.83-2.845h-.937l-1.397 2.342-1.389-2.342h-.929l1.823 2.845-1.694 2.669h.909l1.28-2.15 1.288 2.15h.909l-1.693-2.669zM25.398 14.176v-.648h-1.553V8.662h-.772v4.866h-1.561v.648h3.886z" fill="#fffcfc" fill-opacity="1" fill-rule="nonzero" stroke="none" class="fill-e6e6e6"></path></g></svg>