<svg xml:space="preserve" xmlns="http://www.w3.org/2000/svg" viewBox="0 0 56.25 56.25"><defs><clipPath id="a"><path d="M0 0v45h45V0H0"></path></clipPath></defs><g clip-path="url(#a)" transform="matrix(1.25 0 0 -1.25 0 56.25)"><path d="M9.347 6.027v32.946c0 .843.684 1.527 1.527 1.527h13.349l11.43-11.43V6.027c0-.843-.684-1.527-1.527-1.527H10.874c-.843 0-1.527.684-1.527 1.527z" fill="#ccc729" fill-opacity="1" fill-rule="evenodd" stroke="none" class="fill-2b2b2b"></path><path d="m24.223 40.5 11.43-11.43H25.75c-.843 0-1.527.684-1.527 1.527V40.5z" fill="#757575" fill-opacity="1" fill-rule="evenodd" stroke="none" class="fill-525252"></path><path d="M17.153 9.326v-.664h-4.086v.594l3.017 4.265h-2.927v.655h3.941v-.527l-3.063-4.323h3.118zM18.734 14.176V8.662h-.773v5.514h.773zM23.365 12.604c0-.489-.178-.884-.534-1.183-.305-.26-.75-.391-1.335-.394h-.776V8.662h-.773v5.514h1.549c.585 0 1.03-.13 1.335-.39.356-.31.534-.704.534-1.182zm-1.135-.738c.223.166.335.412.335.738 0 .325-.112.567-.335.725-.203.143-.469.215-.796.215h-.714v-1.885h.714c.33 0 .595.069.796.207z" fill="#fffafa" fill-opacity="1" fill-rule="nonzero" stroke="none" class="fill-e6e6e6"></path></g></svg>